<?xml version="1.0" encoding="utf-8"?>
<!-- Generator: Adobe Illustrator 16.0.0, SVG Export Plug-In . SVG Version: 6.00 Build 0)  -->
<!DOCTYPE svg PUBLIC "-//W3C//DTD SVG 1.1//EN" "http://www.w3.org/Graphics/SVG/1.1/DTD/svg11.dtd">
<svg version="1.1"
	 id="svg5" xmlns:sodipodi="http://sodipodi.sourceforge.net/DTD/sodipodi-0.dtd" xmlns:svg="http://www.w3.org/2000/svg" xmlns:inkscape="http://www.inkscape.org/namespaces/inkscape" sodipodi:docname="segurity.svg" inkscape:version="1.1 (c68e22c387, 2021-05-23)"
	 xmlns="http://www.w3.org/2000/svg" xmlns:xlink="http://www.w3.org/1999/xlink" x="0px" y="0px" width="512px" height="512px"
	 viewBox="0 0 512 512" enable-background="new 0 0 512 512" xml:space="preserve">
<sodipodi:namedview  id="namedview7" pagecolor="#505050" bordercolor="#eeeeee" inkscape:cx="238.80628" inkscape:zoom="0.71815532" showgrid="false" borderopacity="1" inkscape:cy="160.82872" inkscape:current-layer="layer4" inkscape:window-maximized="1" inkscape:window-y="-8" inkscape:window-x="-8" inkscape:document-units="px" inkscape:pagecheckerboard="0" inkscape:pageopacity="0" inkscape:snap-bbox="true" inkscape:pageshadow="0" inkscape:window-height="705" inkscape:window-width="1366" inkscape:snap-global="false">
	</sodipodi:namedview>
<g id="layer2" inkscape:label="Capa 5" inkscape:groupmode="layer">
	
		<path id="path894" sodipodi:open="true" sodipodi:end="5.8269462" sodipodi:start="5.8269737" sodipodi:ry="67.421005" sodipodi:cx="67.973625" sodipodi:type="arc" sodipodi:rx="67.605209" sodipodi:cy="67.789429" sodipodi:arc-type="arc" fill="#FFFCFF" d="
		M486.292,143.951c62.169,126.339,9.87,279.018-116.814,341.019c-126.684,62-279.78,9.844-341.951-116.494
		S17.653,89.458,144.336,27.455c126.684-62.002,279.781-9.848,341.953,116.489"/>
</g>
<g id="layer1" inkscape:label="Capa 1" inkscape:groupmode="layer">
	
		<linearGradient id="path824_1_" gradientUnits="userSpaceOnUse" x1="70.3098" y1="517.2014" x2="-32.1023" y2="520.1488" gradientTransform="matrix(3.7795 0 0 -3.7795 146.1068 2301.6233)">
		<stop  offset="0" style="stop-color:#FFBB00"/>
		<stop  offset="1" style="stop-color:#FFCC00"/>
	</linearGradient>
	<path id="path824" sodipodi:nodetypes="scsssssssss" fill="#663366" stroke="url(#path824_1_)" stroke-width="0.2646" d="
		M92.62,197.262c236.158,0,250.022,0,250.022,0h13.89c30.646,0,55.561,25.829,55.561,57.6v172.8c0,31.77-24.915,57.6-55.561,57.6
		H78.729c-30.645,0-55.56-25.83-55.56-57.6v-172.8c0-31.771,24.915-57.6,55.56-57.6H92.62z"/>
</g>
<g id="layer3" inkscape:label="Capa 2" inkscape:groupmode="layer">
	<path id="path1070" sodipodi:nodetypes="cccssccssccc" fill="#111F31" d="M148.18,154.062v43.2h138.901v-43.2
		c0-39.78-31.079-72-69.451-72C179.26,82.062,148.18,114.281,148.18,154.062L148.18,154.062z M92.62,197.262v-43.2
		c0-71.55,55.994-129.601,125.011-129.601s128.492,60.146,125.012,129.601c0,83.378,0,43.2,0,43.2H92.62z"/>
	
		<linearGradient id="path16627_1_" gradientUnits="userSpaceOnUse" x1="-13.1101" y1="583.2727" x2="32.0801" y2="573.6938" gradientTransform="matrix(3.7795 0 0 -3.7795 146.1068 2301.6233)">
		<stop  offset="0" style="stop-color:#D1CDD7;stop-opacity:0.1728"/>
		<stop  offset="1" style="stop-color:#D2DAE2;stop-opacity:0"/>
	</linearGradient>
	<path id="path16627" sodipodi:nodetypes="cccssccssccc" fill="url(#path16627_1_)" d="M148.18,154.062v43.2h138.901v-43.2
		c0-39.78-31.079-72-69.451-72C179.26,82.062,148.18,114.281,148.18,154.062L148.18,154.062z M92.62,197.262v-43.2
		c0-71.55,55.994-129.601,125.011-129.601s128.492,60.146,125.012,129.601c0,83.378,0,43.2,0,43.2H92.62z"/>
</g>
<g id="layer5" inkscape:label="Capa 4" inkscape:groupmode="layer">
	<path id="path6062" fill="#FFFFFF" stroke="#000000" stroke-width="0.5516" d="M226.218,288.708
		c-18.261-0.338-33.66,13.535-35.229,31.736c-1.408,16.438,8.939,31.596,24.756,36.268v44.512c0,5.503,4.107,9.932,9.209,9.932
		s9.209-4.429,9.209-9.932V357.07c15.987-4.082,26.893-18.857,26.086-35.344C259.354,303.479,244.478,289.046,226.218,288.708
		L226.218,288.708z"/>
</g>
<g id="layer4" inkscape:label="Capa 3" inkscape:groupmode="layer">
	
		<linearGradient id="path833_1_" gradientUnits="userSpaceOnUse" x1="27.8645" y1="532.8049" x2="87.7839" y2="566.3113" gradientTransform="matrix(3.7795 0 0 -3.7795 148.1068 2311.6233)">
		<stop  offset="0" style="stop-color:#9FA1A8;stop-opacity:0.8667"/>
		<stop  offset="1" style="stop-color:#191719"/>
	</linearGradient>
	<path id="path833" fill="url(#path833_1_)" d="M426.302,272.621c40.375,0,73.107-32.732,73.107-73.107
		s-32.732-73.107-73.107-73.107c-40.376,0-73.108,32.732-73.108,73.107c0,7.768,1.205,15.286,3.448,22.307l-67.002,67.001
		c-1.869,1.869-2.908,4.403-2.908,7.062v33.23c0,5.525,4.445,9.97,9.97,9.97h33.23c5.525,0,9.97-4.444,9.97-9.97v-16.615h16.615
		c5.524,0,9.97-4.444,9.97-9.969v-16.615h16.615c2.658,0,5.192-1.039,7.062-2.908l13.832-13.832
		C411.016,271.417,418.534,272.621,426.302,272.621L426.302,272.621z M442.918,166.283c9.176,0,16.615,7.438,16.615,16.615
		s-7.439,16.615-16.615,16.615c-9.177,0.008-16.622-7.425-16.629-16.602c-0.008-9.177,7.425-16.622,16.602-16.629
		C442.899,166.283,442.908,166.283,442.918,166.283z"/>
</g>
</svg>
